<mxfile host="Electron" agent="Mozilla/5.0 (Windows NT 10.0; Win64; x64) AppleWebKit/537.36 (KHTML, like Gecko) draw.io/25.0.2 Chrome/128.0.6613.186 Electron/32.2.5 Safari/537.36" version="25.0.2">
  <diagram name="Page-1" id="l-OC2nUe5Pkfu27kQK_7">
    <mxGraphModel dx="780" dy="504" grid="1" gridSize="10" guides="1" tooltips="1" connect="1" arrows="1" fold="1" page="1" pageScale="1" pageWidth="850" pageHeight="1100" math="0" shadow="0">
      <root>
        <mxCell id="0" />
        <mxCell id="1" parent="0" />
        <mxCell id="dc70OoATlxipfptxEvgW-1" value="+ Employee&lt;div&gt;&lt;br&gt;&lt;/div&gt;" style="swimlane;fontStyle=1;align=center;verticalAlign=top;childLayout=stackLayout;horizontal=1;startSize=26;horizontalStack=0;resizeParent=1;resizeParentMax=0;resizeLast=0;collapsible=1;marginBottom=0;whiteSpace=wrap;html=1;" parent="1" vertex="1">
          <mxGeometry x="210" y="150" width="430" height="130" as="geometry" />
        </mxCell>
        <mxCell id="dc70OoATlxipfptxEvgW-2" value="&amp;nbsp; firstName: String&lt;div&gt;&amp;nbsp; lastName : String&lt;/div&gt;&lt;div&gt;&amp;nbsp; ID : int&lt;br&gt;&lt;/div&gt;&lt;div&gt;&amp;nbsp; Manager : Employee&lt;/div&gt;&lt;div&gt;&lt;br&gt;&lt;/div&gt;" style="text;strokeColor=none;fillColor=none;align=left;verticalAlign=top;spacingLeft=4;spacingRight=4;overflow=hidden;rotatable=0;points=[[0,0.5],[1,0.5]];portConstraint=eastwest;whiteSpace=wrap;html=1;" parent="dc70OoATlxipfptxEvgW-1" vertex="1">
          <mxGeometry y="26" width="430" height="64" as="geometry" />
        </mxCell>
        <mxCell id="dc70OoATlxipfptxEvgW-3" value="" style="line;strokeWidth=1;fillColor=none;align=left;verticalAlign=middle;spacingTop=-1;spacingLeft=3;spacingRight=3;rotatable=0;labelPosition=right;points=[];portConstraint=eastwest;strokeColor=inherit;" parent="dc70OoATlxipfptxEvgW-1" vertex="1">
          <mxGeometry y="90" width="430" height="8" as="geometry" />
        </mxCell>
        <mxCell id="dc70OoATlxipfptxEvgW-4" value="&lt;div&gt;+ Employee(firstName: String, lastName: String, ID: int, Manager: Employee )&lt;/div&gt;&lt;div&gt;&lt;br&gt;&lt;/div&gt;" style="text;strokeColor=none;fillColor=none;align=left;verticalAlign=top;spacingLeft=4;spacingRight=4;overflow=hidden;rotatable=0;points=[[0,0.5],[1,0.5]];portConstraint=eastwest;whiteSpace=wrap;html=1;" parent="dc70OoATlxipfptxEvgW-1" vertex="1">
          <mxGeometry y="98" width="430" height="32" as="geometry" />
        </mxCell>
        <mxCell id="dc70OoATlxipfptxEvgW-5" value="" style="endArrow=none;html=1;rounded=0;exitX=-0.005;exitY=0.703;exitDx=0;exitDy=0;exitPerimeter=0;" parent="1" source="dc70OoATlxipfptxEvgW-2" edge="1">
          <mxGeometry width="50" height="50" relative="1" as="geometry">
            <mxPoint x="180" y="300" as="sourcePoint" />
            <mxPoint x="160" y="80" as="targetPoint" />
            <Array as="points">
              <mxPoint x="160" y="220" />
            </Array>
          </mxGeometry>
        </mxCell>
        <mxCell id="dc70OoATlxipfptxEvgW-6" value="" style="endArrow=none;html=1;rounded=0;" parent="1" edge="1">
          <mxGeometry width="50" height="50" relative="1" as="geometry">
            <mxPoint x="160" y="80" as="sourcePoint" />
            <mxPoint x="430" y="150" as="targetPoint" />
            <Array as="points">
              <mxPoint x="250" y="80" />
              <mxPoint x="340" y="80" />
              <mxPoint x="430" y="80" />
            </Array>
          </mxGeometry>
        </mxCell>
        <mxCell id="dc70OoATlxipfptxEvgW-7" value="is managed by" style="text;align=center;fontStyle=0;verticalAlign=middle;spacingLeft=3;spacingRight=3;strokeColor=none;rotatable=0;points=[[0,0.5],[1,0.5]];portConstraint=eastwest;html=1;" parent="1" vertex="1">
          <mxGeometry x="70" y="130" width="80" height="26" as="geometry" />
        </mxCell>
        <mxCell id="dc70OoATlxipfptxEvgW-8" value="1..1" style="text;align=center;fontStyle=0;verticalAlign=middle;spacingLeft=3;spacingRight=3;strokeColor=none;rotatable=0;points=[[0,0.5],[1,0.5]];portConstraint=eastwest;html=1;" parent="1" vertex="1">
          <mxGeometry x="140" y="230" width="80" height="26" as="geometry" />
        </mxCell>
        <mxCell id="dc70OoATlxipfptxEvgW-9" value="1..*" style="text;align=center;fontStyle=0;verticalAlign=middle;spacingLeft=3;spacingRight=3;strokeColor=none;rotatable=0;points=[[0,0.5],[1,0.5]];portConstraint=eastwest;html=1;" parent="1" vertex="1">
          <mxGeometry x="425" y="110" width="80" height="26" as="geometry" />
        </mxCell>
      </root>
    </mxGraphModel>
  </diagram>
</mxfile>
